<?xml version="1.0" standalone="no"?>
<!DOCTYPE svg PUBLIC "-//W3C//DTD SVG 20010904//EN"
 "http://www.w3.org/TR/2001/REC-SVG-20010904/DTD/svg10.dtd">
<svg version="1.0" xmlns="http://www.w3.org/2000/svg"
 width="799.000000pt" height="544.000000pt" viewBox="0 0 799.000000 544.000000"
 preserveAspectRatio="xMidYMid meet">

<g transform="translate(0.000000,544.000000) scale(0.100000,-0.100000)"
fill="#000000" stroke="none">
<path d="M0 2720 l0 -2720 3995 0 3995 0 0 2720 0 2720 -3995 0 -3995 0 0
-2720z m7345 2294 c3 -25 5 -48 2 -50 -6 -6 -6588 -867 -6593 -862 -2 3 -8 26
-13 51 -6 33 -5 47 3 48 6 0 1478 193 3271 428 1793 236 3274 429 3291 430 30
1 32 -1 39 -45z m0 -150 c3 -25 4 -48 1 -51 -9 -9 -6585 -868 -6592 -861 -3 4
-9 27 -11 51 l-5 44 168 22 c816 109 6394 839 6410 840 18 1 23 -6 29 -45z
m-969 -1322 c-130 -253 -236 -462 -236 -465 0 -4 103 -178 230 -387 126 -209
234 -389 239 -399 10 -17 -6 -21 -247 -60 -141 -23 -262 -41 -269 -41 -6 0
-76 121 -155 270 -78 148 -145 269 -148 269 -3 1 -68 -137 -145 -306 l-140
-306 -263 -50 c-144 -27 -265 -48 -267 -45 -4 4 115 241 385 764 l99 191 -248
399 c-155 248 -244 401 -237 405 27 14 507 92 516 83 5 -5 70 -124 145 -264
75 -140 140 -258 143 -262 4 -3 74 133 157 303 82 171 154 313 160 317 15 10
510 58 513 50 2 -4 -103 -214 -232 -466z m-1988 422 c161 -33 279 -100 400
-228 90 -96 111 -130 96 -154 -13 -21 -91 -81 -300 -231 -245 -177 -259 -189
-288 -251 -13 -30 -28 -68 -32 -83 l-6 -28 33 14 c162 70 204 89 209 96 9 13
140 81 156 81 20 0 60 -91 86 -199 30 -119 30 -308 0 -441 -67 -295 -280 -517
-600 -623 -141 -47 -232 -61 -363 -54 -203 10 -383 93 -539 247 -158 155 -256
336 -301 555 -19 89 -16 277 5 354 43 161 137 332 232 428 133 133 400 239
629 250 106 5 123 4 138 -11 21 -21 22 -59 3 -89 -7 -12 -17 -59 -20 -104 l-6
-81 47 14 c27 8 60 19 74 25 l27 11 -3 111 c-2 62 -11 150 -19 197 -9 47 -16
109 -16 138 0 45 3 54 23 62 37 15 251 11 335 -6z m-1648 -672 l0 -218 -385
-59 -385 -59 0 -153 c0 -130 2 -153 15 -153 8 0 154 22 323 50 169 27 315 50
325 50 16 0 17 -17 17 -214 l0 -213 -27 -6 c-16 -3 -166 -24 -335 -48 l-308
-44 0 -292 c0 -160 -3 -294 -8 -297 -8 -5 -405 -76 -427 -76 -13 0 -15 107
-15 880 l0 879 33 6 c100 19 1127 183 1150 184 l27 1 0 -218z m4604 -1266 c4
-26 7 -48 5 -50 -6 -4 -6593 -865 -6596 -862 -3 3 -21 95 -19 97 4 3 6583 866
6591 864 6 -1 14 -23 19 -49z m1 -152 c3 -25 5 -47 3 -49 -5 -5 -6590 -866
-6594 -862 -2 2 -8 24 -13 50 l-8 46 41 6 c157 24 6499 853 6527 854 36 1 37
0 44 -45z m-750 -389 c0 -23 -58 -65 -91 -65 -17 0 -24 6 -24 20 0 11 5 20 10
20 6 0 10 9 10 19 0 24 15 30 60 28 27 -2 35 -6 35 -22z m446 -69 c37 -61 13
-81 -57 -47 -51 26 -79 24 -79 -4 0 -15 11 -22 50 -31 90 -20 125 -51 125
-112 0 -83 -146 -150 -244 -112 -43 16 -77 110 -40 110 9 0 32 -13 51 -30 34
-30 66 -37 92 -21 24 15 4 38 -44 50 -60 15 -92 36 -111 73 -20 38 -11 78 24
111 38 37 67 46 146 45 65 -1 69 -2 87 -32z m-476 -24 c17 -11 62 -68 105
-135 41 -63 83 -118 93 -120 26 -7 21 -36 -9 -47 -14 -6 -56 -13 -94 -16 -62
-6 -70 -5 -77 11 -4 11 -2 20 5 23 7 2 12 10 12 18 0 10 -14 14 -54 14 -58 0
-80 -15 -53 -35 37 -27 6 -54 -63 -57 -55 -2 -70 15 -42 45 29 30 82 189 82
243 0 33 5 46 22 58 29 20 36 20 73 -2z m-238 -38 c3 -8 1 -20 -6 -27 -23 -23
-3 -215 25 -238 39 -32 -3 -59 -91 -59 -55 0 -76 13 -56 33 15 15 15 110 -1
105 -9 -3 -56 -122 -58 -147 -1 -12 -35 30 -66 80 -19 33 -37 59 -40 59 -2 0
-4 -20 -4 -45 0 -33 6 -50 22 -65 26 -24 17 -38 -36 -50 -65 -14 -93 4 -61 40
23 26 4 208 -24 232 -12 9 -21 23 -21 30 0 20 43 38 90 38 37 0 42 -4 86 -66
26 -36 50 -62 54 -57 5 4 20 37 34 72 15 36 32 68 39 73 23 15 107 9 114 -8z
m-554 -58 c4 -9 -8 -25 -29 -41 -19 -15 -46 -44 -61 -66 -22 -33 -25 -47 -21
-95 4 -44 10 -60 28 -74 48 -36 -9 -70 -118 -70 -60 0 -76 18 -47 50 14 16 17
30 12 72 -5 42 -14 59 -43 89 -21 21 -52 45 -71 54 -18 9 -33 22 -33 30 0 19
59 36 132 38 62 2 63 2 63 -26 1 -15 9 -35 18 -45 16 -15 19 -15 28 -2 5 8 7
29 4 47 -5 27 -2 32 22 41 43 16 110 14 116 -2z m1729 -28 c26 -21 30 -53 10
-78 -22 -28 -70 -30 -89 -4 -40 54 26 123 79 82z m-135 -34 c15 -24 15 -29 2
-53 -27 -48 -109 -32 -109 22 0 56 76 77 107 31z m-2117 -11 c13 -17 20 -38
18 -57 -2 -25 -8 -32 -30 -34 -19 -2 -31 3 -40 17 -7 12 -19 21 -27 21 -11 0
-12 -15 -7 -77 9 -103 14 -121 37 -128 29 -9 24 -44 -8 -56 -52 -19 -146 -22
-168 -5 -20 16 -20 16 4 35 23 18 24 21 17 111 -4 52 -9 98 -13 103 -3 4 -20
-8 -38 -27 -51 -56 -91 -25 -61 47 18 44 24 47 94 53 31 3 80 9 107 13 82 14
92 13 115 -16z m1968 0 c6 -9 12 -25 12 -35 0 -24 -35 -58 -60 -58 -26 0 -60
34 -60 60 0 10 10 29 22 40 26 24 64 20 86 -7z m-2330 -38 c27 -58 3 -89 -41
-54 -29 22 -75 25 -100 7 -12 -10 -14 -21 -9 -48 4 -19 11 -34 15 -32 4 1 14
2 22 2 9 0 15 9 15 25 0 27 20 34 38 13 17 -21 24 -81 13 -111 -12 -31 -31
-35 -38 -8 -5 22 -29 35 -45 25 -11 -7 -2 -73 12 -88 4 -4 27 -5 50 -1 34 6
46 14 62 42 13 20 27 33 37 31 20 -4 26 -51 11 -87 -10 -26 -14 -27 -153 -43
-84 -9 -146 -12 -152 -7 -6 6 -3 20 8 39 16 26 16 39 7 112 -5 45 -10 86 -10
91 0 4 -12 19 -27 33 -40 37 -18 49 112 63 60 7 112 14 114 17 14 14 49 1 59
-21z m-328 -30 c10 -12 10 -19 2 -27 -25 -25 -4 -234 25 -245 17 -7 17 -27 -1
-42 -7 -6 -40 -14 -72 -17 -49 -5 -62 -3 -73 10 -11 13 -11 20 -3 28 14 14 16
94 3 102 -9 6 -26 -34 -49 -109 -5 -16 -15 -30 -22 -30 -7 0 -30 27 -50 59
-19 33 -40 61 -46 63 -17 6 -3 -81 17 -103 18 -19 18 -22 4 -34 -8 -7 -35 -15
-60 -18 -35 -4 -46 -1 -51 12 -3 9 -1 23 6 31 9 11 11 44 8 116 -5 93 -7 103
-29 120 -31 24 -17 50 35 62 56 14 77 2 121 -63 22 -33 44 -58 50 -57 5 2 21
32 35 68 28 69 52 89 106 89 17 0 37 -7 44 -15z m-503 -71 c13 -8 26 -26 29
-39 7 -27 -12 -85 -27 -85 -18 0 -8 -15 20 -31 17 -10 35 -32 42 -53 7 -20 21
-39 32 -42 47 -15 -9 -64 -74 -64 -41 0 -66 23 -94 88 -12 29 -24 42 -38 42
-17 0 -19 -5 -14 -36 3 -20 13 -44 22 -54 24 -26 18 -38 -22 -49 -93 -26 -166
-3 -128 39 16 17 16 28 6 117 -10 80 -15 101 -33 114 -28 22 -17 47 24 53 178
27 214 27 255 0z m-312 -25 c4 -5 0 -18 -9 -28 -13 -15 -15 -34 -10 -122 7
-103 6 -105 -20 -137 -50 -59 -169 -77 -246 -37 -34 18 -56 74 -64 164 -4 45
-12 71 -26 86 -24 26 -15 40 35 54 90 25 158 3 121 -38 -23 -25 -12 -151 16
-187 23 -28 63 -32 97 -7 23 15 23 20 17 102 -5 78 -9 88 -34 109 -26 22 -27
23 -8 37 23 17 121 20 131 4z m-523 -49 c77 -22 131 -96 130 -177 -2 -55 -25
-96 -76 -131 -34 -23 -49 -27 -110 -27 -83 0 -124 22 -156 85 -52 103 3 222
116 249 53 12 54 12 96 1z m-304 -110 c-4 -46 -34 -51 -81 -16 -39 30 -63 32
-95 10 -17 -12 -22 -25 -22 -61 0 -79 46 -141 96 -131 21 4 27 42 7 44 -7 1
-17 2 -23 3 -5 0 -10 10 -10 21 0 24 33 39 101 47 72 9 119 -30 69 -57 -11 -6
-20 -20 -20 -31 0 -31 -60 -86 -110 -99 -175 -47 -308 150 -188 279 39 42 67
53 158 60 66 6 78 4 98 -13 17 -16 22 -29 20 -56z m-658 -5 c26 -13 148 -183
166 -230 4 -9 18 -21 31 -26 53 -20 3 -54 -92 -64 -72 -7 -97 4 -77 35 19 32
6 42 -46 34 -57 -8 -74 -20 -49 -38 39 -30 6 -56 -72 -56 -42 0 -51 3 -51 18
0 9 9 23 20 29 22 15 80 188 80 242 0 36 23 71 47 71 8 0 27 -7 43 -15z m-255
-28 c3 -7 -20 -70 -50 -141 -31 -71 -53 -131 -51 -134 3 -2 22 -1 42 2 28 6
39 14 47 37 24 62 80 22 63 -45 -7 -28 -34 -59 -45 -52 -4 3 -58 -2 -121 -10
-147 -18 -150 -18 -150 4 0 10 23 69 51 131 27 63 48 119 45 126 -8 22 -47 4
-68 -31 -23 -38 -30 -41 -53 -18 -18 19 -14 53 11 92 11 17 24 22 62 23 26 0
79 6 117 13 92 18 95 18 100 3z m-340 -40 c3 -7 -19 -68 -49 -137 -30 -69 -50
-129 -46 -134 16 -16 71 5 83 32 15 35 27 43 49 31 30 -16 16 -119 -16 -119
-6 0 -67 -7 -136 -15 -69 -8 -131 -15 -137 -15 -23 0 -14 34 38 149 27 63 48
119 45 126 -8 22 -47 4 -68 -31 -24 -40 -32 -42 -53 -10 -14 22 -14 27 1 65
16 40 17 41 68 42 28 0 80 6 116 14 85 17 100 18 105 2z m-321 -47 c6 -6 2
-17 -9 -30 -17 -19 -17 -27 -6 -118 9 -77 15 -100 31 -111 11 -7 20 -20 20
-28 0 -21 -62 -43 -124 -43 -59 0 -74 13 -48 42 13 15 13 32 4 115 -9 82 -15
101 -34 116 -32 27 -13 49 53 64 55 12 96 9 113 -7z m-223 -49 c23 -24 29 -38
29 -74 0 -38 -5 -49 -31 -71 -30 -25 -48 -33 -99 -38 -21 -3 -25 -7 -22 -33 2
-16 12 -36 22 -44 28 -19 25 -30 -15 -47 -47 -19 -134 -19 -142 1 -3 9 2 21
11 28 15 11 16 22 6 107 -14 119 -16 127 -40 133 -11 3 -20 12 -20 21 0 9 1
16 3 17 41 10 167 27 210 28 52 1 62 -2 88 -28z"/>
<path d="M4123 3913 c-39 -4 -43 -7 -43 -31 0 -15 3 -38 7 -51 l6 -24 146 6
c160 7 153 9 235 -57 31 -25 38 -27 53 -15 15 12 16 12 11 -2 -5 -12 6 -22 42
-39 45 -21 70 -51 70 -85 0 -8 24 -30 52 -50 l53 -35 16 22 c9 12 24 23 34 24
30 4 28 12 -19 72 -77 101 -223 196 -371 241 -70 22 -208 33 -292 24z m127
-74 c0 -5 -4 -9 -10 -9 -5 0 -10 7 -10 16 0 8 5 12 10 9 6 -3 10 -10 10 -16z
m190 -19 c0 -5 -5 -10 -11 -10 -5 0 -7 5 -4 10 3 6 8 10 11 10 2 0 4 -4 4 -10z
m61 -33 c-10 -9 -11 -8 -5 6 3 10 9 15 12 12 3 -3 0 -11 -7 -18z m38 -10 c-2
-1 -13 -9 -24 -17 -19 -14 -19 -14 -6 3 7 9 18 17 24 17 6 0 8 -1 6 -3z m235
-192 c-4 -8 -11 -15 -16 -15 -6 0 -5 6 2 15 7 8 14 15 16 15 2 0 1 -7 -2 -15z"/>
<path d="M4100 3764 c0 -5 7 -54 15 -109 8 -55 15 -119 15 -142 0 -38 3 -43
23 -44 16 -1 18 -2 5 -6 -21 -5 -23 -44 -8 -173 5 -47 10 -109 11 -137 2 -57
11 -63 46 -34 l23 19 -25 44 c-17 29 -25 58 -25 92 0 41 5 53 34 82 28 28 42
34 75 34 51 0 92 -20 123 -60 l23 -30 133 96 c72 53 132 99 132 103 -1 3 -20
19 -45 34 -32 20 -47 38 -57 68 -12 37 -20 44 -71 64 -32 13 -76 40 -100 60
-40 35 -45 36 -112 34 -38 -1 -103 2 -142 6 -42 5 -73 4 -73 -1z m128 -59 c-3
-3 -9 2 -12 12 -6 14 -5 15 5 6 7 -7 10 -15 7 -18z m95 6 c-4 -3 -11 -10 -15
-15 -5 -5 -8 0 -8 12 0 15 4 20 16 15 9 -3 12 -9 7 -12z m39 -20 c1 -23 6 -31
20 -31 12 0 18 8 19 23 l2 22 4 -22 c3 -18 11 -23 33 -23 23 0 27 -4 23 -19
-3 -13 1 -21 14 -24 15 -4 14 -5 -4 -6 -27 -1 -31 -20 -5 -22 16 -1 16 -2 0
-6 -10 -2 -18 -10 -18 -16 0 -9 -2 -9 -8 -1 -4 7 -16 14 -27 17 -18 4 -18 5 3
6 40 2 23 21 -20 22 -24 1 -33 4 -20 6 12 2 22 11 22 20 0 11 -7 14 -24 11
-14 -3 -31 -1 -38 3 -10 7 -10 9 0 9 6 0 12 5 12 11 0 6 -9 9 -20 6 -11 -3
-18 -1 -14 4 3 5 12 9 20 9 8 0 14 9 14 22 0 33 11 14 12 -21z m-85 -3 c-3 -8
-6 -5 -6 6 -1 11 2 17 5 13 3 -3 4 -12 1 -19z m-34 -50 c13 -13 32 -22 45 -20
16 2 23 -3 28 -22 8 -33 -1 -46 -33 -46 -18 0 -24 -4 -20 -14 9 -22 -19 -39
-49 -32 -69 18 -97 96 -48 135 34 27 50 26 77 -1z m355 -100 c17 -17 15 -67
-3 -74 -8 -4 -23 -3 -32 1 -17 6 -17 7 0 16 25 15 21 27 -8 21 -20 -3 -25 0
-25 15 0 11 3 23 7 26 11 11 48 8 61 -5z m-180 -30 c7 -7 12 -22 12 -35 0 -27
-42 -42 -65 -23 -28 23 -11 70 25 70 9 0 21 -5 28 -12z m-243 -100 c-19 -11
-30 -5 -21 11 4 6 14 7 22 4 15 -5 14 -7 -1 -15z"/>
<path d="M4410 3635 c0 -8 9 -15 20 -15 11 0 20 7 20 15 0 8 -9 15 -20 15 -11
0 -20 -7 -20 -15z"/>
<path d="M4166 3618 c-21 -29 -20 -31 10 -67 25 -30 74 -44 74 -21 0 6 -6 10
-13 10 -7 0 -14 10 -14 22 -1 13 1 18 5 12 10 -16 72 -5 72 13 0 11 -10 13
-47 8 -44 -6 -46 -5 -29 9 10 8 15 19 11 25 -11 19 -53 12 -69 -11z"/>
<path d="M4365 3489 c-4 -12 -2 -26 3 -31 11 -11 52 -1 52 13 0 5 -4 9 -10 9
-5 0 -10 -5 -10 -12 0 -6 -3 -8 -6 -5 -4 4 -2 13 4 20 7 8 9 17 5 20 -13 14
-32 7 -38 -14z"/>
<path d="M3760 3589 c-191 -22 -364 -86 -475 -177 -101 -83 -207 -258 -245
-408 -60 -234 15 -529 187 -742 30 -37 39 -43 62 -37 25 6 25 6 6 -9 -20 -16
-19 -17 25 -57 102 -92 257 -178 279 -156 8 8 11 7 11 -5 0 -11 17 -19 59 -27
111 -22 184 -24 293 -7 251 37 490 197 613 409 27 46 27 48 9 63 -18 14 -18
15 3 9 20 -5 24 0 43 62 11 37 24 100 29 138 8 71 5 220 -5 237 -4 5 -8 28 -9
51 -5 59 -28 130 -44 135 -8 3 -11 0 -7 -7 4 -6 1 -11 -6 -11 -10 -1 -9 -4 2
-13 17 -14 22 -27 28 -78 3 -26 -4 -51 -26 -92 -29 -54 -30 -62 -28 -164 3
-125 13 -183 35 -201 14 -12 14 -13 -3 -8 -24 8 -87 -59 -84 -89 3 -29 -10
-62 -27 -69 -8 -3 -25 -23 -39 -45 -17 -27 -37 -43 -63 -51 -21 -7 -49 -22
-63 -35 -14 -12 -52 -38 -85 -59 -33 -20 -77 -50 -97 -68 -32 -26 -48 -32
-115 -39 -43 -4 -103 -17 -133 -29 -52 -21 -60 -21 -149 -9 -80 11 -99 18
-138 47 -37 29 -54 35 -98 36 -29 0 -48 4 -43 7 16 10 -7 20 -29 13 -14 -6
-16 -4 -6 6 9 10 -5 30 -71 94 -46 45 -100 94 -121 110 -20 15 -41 41 -47 57
-5 15 -17 30 -26 32 -15 4 -15 5 1 6 9 0 17 6 17 11 0 6 -8 10 -17 10 -15 0
-15 2 -4 9 12 8 11 14 -5 36 -36 52 -44 70 -44 108 0 31 -3 37 -22 38 -17 1
-19 2 -5 6 9 2 17 9 17 14 0 5 -8 9 -17 9 -15 0 -16 2 -3 10 12 8 12 10 -5 11
-11 0 -14 3 -7 6 6 2 12 11 12 19 0 9 -3 13 -7 11 -5 -3 -8 47 -9 111 0 105 2
118 20 133 14 12 21 34 27 88 4 40 13 79 19 86 7 8 8 20 4 26 -4 7 -3 9 3 6
10 -6 64 48 130 130 30 39 147 115 223 147 20 8 65 17 100 21 36 4 103 17 150
30 47 13 96 25 110 27 22 3 25 9 28 46 4 48 12 46 -118 31z m-140 -105 c0 -2
-9 0 -20 6 -11 6 -20 13 -20 16 0 2 9 0 20 -6 11 -6 20 -13 20 -16z m-30 -12
c-7 -3 -19 3 -28 13 -16 15 -15 16 12 4 15 -7 23 -15 16 -17z m-35 -2 c8 -13
-5 -13 -25 0 -13 8 -13 10 2 10 9 0 20 -4 23 -10z m-268 -126 c-3 -3 -12 -4
-19 -1 -8 3 -5 6 6 6 11 1 17 -2 13 -5z m-32 -44 c3 -5 2 -10 -4 -10 -5 0 -13
5 -16 10 -3 6 -2 10 4 10 5 0 13 -4 16 -10z m-128 -166 c-3 -3 -12 -4 -19 -1
-8 3 -5 6 6 6 11 1 17 -2 13 -5z m-30 -80 c-3 -3 -12 -4 -19 -1 -8 3 -5 6 6 6
11 1 17 -2 13 -5z m-4 -41 c-7 -2 -19 -2 -25 0 -7 3 -2 5 12 5 14 0 19 -2 13
-5z m1 -22 c4 -5 -3 -7 -14 -4 -23 6 -26 13 -6 13 8 0 17 -4 20 -9z m-19 -21
c3 -5 -1 -10 -9 -10 -9 0 -16 5 -16 10 0 6 4 10 9 10 6 0 13 -4 16 -10z m1565
-190 c0 -5 -7 -7 -15 -4 -8 4 -15 8 -15 10 0 2 7 4 15 4 8 0 15 -4 15 -10z
m-13 -26 c-3 -3 -12 -4 -19 -1 -8 3 -5 6 6 6 11 1 17 -2 13 -5z m-3 -113 c4
-5 -3 -7 -14 -4 -23 6 -26 13 -6 13 8 0 17 -4 20 -9z m1 -31 c3 -6 -1 -7 -9
-4 -18 7 -21 14 -7 14 6 0 13 -4 16 -10z m0 -30 c8 -13 -5 -13 -25 0 -13 8
-13 10 2 10 9 0 20 -4 23 -10z m0 -30 c3 -6 -1 -7 -9 -4 -18 7 -21 14 -7 14 6
0 13 -4 16 -10z m-10 -28 c-3 -3 -11 0 -18 7 -9 10 -8 11 6 5 10 -3 15 -9 12
-12z m-10 -60 c-3 -3 -11 0 -18 7 -9 10 -8 11 6 5 10 -3 15 -9 12 -12z m-155
-232 c0 -5 -2 -10 -4 -10 -3 0 -8 5 -11 10 -3 6 -1 10 4 10 6 0 11 -4 11 -10z
m-935 -160 c-3 -5 -12 -10 -18 -10 -7 0 -6 4 3 10 19 12 23 12 15 0z m30 -20
c-3 -5 -11 -10 -16 -10 -6 0 -7 5 -4 10 3 6 11 10 16 10 6 0 7 -4 4 -10z m30
-10 c-3 -5 -11 -10 -16 -10 -6 0 -7 5 -4 10 3 6 11 10 16 10 6 0 7 -4 4 -10z
m397 -62 c-7 -7 -12 -8 -12 -2 0 14 12 26 19 19 2 -3 -1 -11 -7 -17z m-72 -3
c-7 -9 -15 -13 -17 -11 -7 7 7 26 19 26 6 0 6 -6 -2 -15z m40 5 c0 -5 -5 -10
-11 -10 -5 0 -7 5 -4 10 3 6 8 10 11 10 2 0 4 -4 4 -10z"/>
<path d="M3835 3463 c-11 -2 -47 -13 -81 -24 -33 -11 -100 -26 -148 -34 -128
-20 -236 -84 -327 -191 -40 -47 -65 -84 -62 -94 4 -11 3 -12 -4 -2 -17 23 -37
-16 -43 -84 -5 -58 -4 -64 15 -67 18 -4 18 -4 -3 -6 -13 0 -30 -14 -43 -33
-18 -29 -20 -44 -15 -128 3 -52 12 -113 20 -135 9 -22 15 -57 16 -77 0 -27 9
-47 31 -72 18 -21 32 -50 35 -73 8 -58 24 -82 71 -110 24 -14 57 -45 74 -69
16 -24 34 -44 39 -44 5 0 26 -17 47 -39 26 -27 50 -41 78 -45 22 -4 63 -23 90
-41 66 -44 172 -61 240 -38 l44 15 -33 29 c-41 36 -52 79 -30 124 32 67 118
70 161 6 27 -40 29 -71 7 -113 l-16 -31 43 7 c24 4 55 18 73 34 17 15 56 43
86 61 30 19 71 47 91 62 19 15 48 31 63 35 15 3 36 20 46 36 10 16 27 36 39
44 14 10 21 26 21 47 0 21 11 45 31 70 29 35 30 41 23 90 -5 28 -7 99 -5 157
3 95 6 110 33 158 35 61 33 84 -11 126 l-30 29 -91 -38 c-106 -45 -118 -55
-96 -87 22 -31 20 -36 -10 -30 -22 4 -25 2 -22 -19 2 -20 10 -25 40 -27 52 -4
80 13 76 46 -4 34 -31 40 -44 10 -6 -13 -9 -18 -8 -11 2 6 -4 19 -11 30 -8 10
-14 23 -14 28 0 6 6 1 14 -9 12 -16 17 -17 30 -6 13 11 19 10 35 -5 41 -37 11
-93 -56 -102 -34 -4 -46 -1 -63 16 -26 26 -23 41 8 57 19 10 20 13 6 24 -8 7
-12 16 -9 21 8 14 0 11 -78 -24 -60 -28 -76 -40 -91 -71 -22 -47 -75 -72 -118
-57 -23 8 -40 4 -98 -21 -75 -34 -101 -32 -101 6 0 14 14 131 30 262 17 130
29 239 27 241 -2 2 -12 -6 -22 -17 -28 -31 -104 -28 -144 6 -36 30 -40 64 -12
110 39 64 135 71 171 11 l20 -32 0 48 c0 26 0 50 1 54 1 10 -11 12 -36 6z
m-307 -143 c15 0 15 2 2 10 -11 7 -6 9 20 9 19 -1 27 -3 17 -6 -11 -3 -16 -11
-13 -19 3 -8 1 -14 -5 -14 -6 0 -8 -7 -5 -16 3 -8 2 -13 -3 -9 -5 3 -11 1 -13
-4 -1 -5 -9 -3 -16 5 -11 12 -10 14 3 14 8 0 15 5 15 10 0 17 -28 11 -39 -7
-14 -25 -14 -9 1 23 7 14 14 21 16 15 2 -6 11 -11 20 -11z m-88 -10 c-6 -11
-13 -20 -16 -20 -2 0 0 9 6 20 6 11 13 20 16 20 2 0 0 -9 -6 -20z m6 -94 c28
-28 34 -41 34 -78 0 -36 -6 -50 -30 -73 -26 -25 -34 -27 -76 -21 -58 8 -69 16
-90 72 -14 37 -15 48 -4 74 15 37 52 59 99 60 25 0 42 -9 67 -34z m208 -2 c13
-12 14 -20 5 -37 -10 -18 -8 -23 10 -35 42 -29 14 -85 -31 -61 -13 7 -31 12
-41 10 -65 -10 -59 103 7 129 30 12 33 12 50 -6z m-424 -122 c0 -5 -7 -17 -15
-28 -14 -18 -14 -17 -4 9 12 27 19 34 19 19z m538 -57 c51 -43 51 -107 1 -154
-29 -27 -78 -27 -128 -1 -42 21 -51 36 -51 81 0 42 16 68 53 84 50 22 92 18
125 -10z m723 -59 c-5 -6 -10 -14 -10 -19 0 -4 -5 -15 -11 -25 -11 -16 -11
-16 -6 1 3 11 0 17 -9 17 -16 0 -18 5 -9 37 5 19 9 20 30 11 16 -7 21 -15 15
-22z m-84 -8 c-3 -8 -6 -5 -6 6 -1 11 2 17 5 13 3 -3 4 -12 1 -19z m-952 -49
c10 -31 -16 -53 -51 -45 -15 4 -24 10 -18 14 5 4 18 17 28 30 17 20 17 22 2
22 -9 0 -21 -10 -26 -22 l-9 -23 0 22 c-2 46 60 48 74 2z m-166 -44 c51 -26
73 -119 38 -164 -21 -25 -59 -33 -105 -20 -34 9 -47 20 -63 50 -27 54 -24 85
10 120 33 33 75 38 120 14z m251 -50 c38 -19 60 -63 60 -115 0 -33 -6 -48 -30
-72 -28 -28 -35 -30 -82 -26 -43 5 -57 11 -81 38 -26 29 -29 38 -24 83 8 88
82 131 157 92z m920 -23 c0 -27 -47 -69 -61 -55 -8 8 -5 17 10 32 12 12 21 26
21 31 0 6 7 10 15 10 8 0 15 -8 15 -18z m-513 -62 c-3 -11 0 -20 6 -21 7 0 2
-4 -10 -9 -28 -12 -29 -26 -3 -33 12 -3 24 1 30 11 5 10 10 13 10 9 0 -10 -50
-97 -56 -97 -3 0 2 13 11 30 20 39 19 43 -10 38 -30 -6 -31 -2 -5 40 25 40 25
40 -2 45 -19 4 -18 5 6 6 24 1 27 -2 23 -19z m243 -15 c0 -7 -5 -15 -11 -17
-8 -3 -8 -10 2 -27 12 -20 12 -24 -5 -37 -24 -17 -87 -19 -104 -2 -32 32 4
107 46 94 13 -4 22 -1 26 9 4 13 10 14 26 5 11 -6 20 -17 20 -25z m-293 -3
c-13 -3 -17 -10 -14 -23 7 -26 -2 -24 -12 4 -10 25 3 39 28 29 14 -6 13 -7 -2
-10z m460 -3 c42 -16 72 -48 79 -85 7 -40 0 -66 -33 -104 -20 -25 -32 -30 -67
-30 -137 0 -173 168 -46 219 33 13 34 13 67 0z m-549 -41 c7 -7 8 -17 2 -28
-7 -14 -5 -19 10 -23 39 -10 17 -63 -34 -81 -21 -7 -81 26 -90 50 -18 48 6 91
44 79 11 -4 20 -2 20 4 0 15 33 14 48 -1z m-564 -59 c-3 -6 0 -15 7 -20 10 -6
8 -9 -9 -9 -20 0 -21 3 -12 20 6 11 13 20 16 20 3 0 2 -5 -2 -11z m32 -38
c-17 -18 -17 -20 1 -31 17 -11 17 -11 -1 -6 -10 4 -26 1 -34 -6 -13 -11 -14
-11 -7 2 10 19 47 60 53 60 3 0 -3 -9 -12 -19z m284 -30 c-15 -30 -12 -41 13
-41 12 -1 33 -7 46 -14 24 -13 24 -13 -8 -12 -17 0 -31 4 -31 9 0 4 -8 7 -18
7 -10 0 -21 3 -25 6 -6 7 19 64 29 64 2 0 0 -9 -6 -19z m65 -4 c-14 -8 -15
-11 -4 -18 11 -7 10 -9 -3 -9 -21 0 -22 4 -7 31 5 11 15 17 21 13 7 -4 4 -10
-7 -17z m415 -12 c40 -21 56 -72 36 -118 -8 -20 -23 -40 -34 -46 -33 -18 -87
-13 -123 12 -106 71 5 212 121 152z m-672 -31 c15 -10 22 -24 20 -39 -1 -12 3
-30 11 -39 11 -13 11 -19 1 -31 -17 -21 -37 -19 -50 6 -7 13 -17 18 -27 15
-42 -17 -60 61 -21 88 28 20 38 20 66 0z m299 10 c-3 -3 -12 -4 -19 -1 -8 3
-5 6 6 6 11 1 17 -2 13 -5z m-41 -82 c73 -59 50 -172 -40 -202 -39 -13 -71 -3
-103 31 -51 56 -49 127 4 169 33 26 109 27 139 2z m634 -46 c15 -20 9 -56 -12
-70 -22 -14 -34 -1 -18 19 7 9 10 19 6 22 -4 4 -11 1 -16 -6 -11 -19 -40 -6
-40 18 0 31 57 43 80 17z m101 -17 c-9 -3 -23 -4 -31 0 -12 4 -12 6 3 9 9 2
17 8 17 13 0 5 6 4 14 -3 12 -11 11 -14 -3 -19z m-576 -9 c7 -23 -10 -50 -31
-50 -17 0 -29 20 -17 29 5 3 12 14 16 24 9 23 24 22 32 -3z m331 -83 l-25 -56
30 1 c16 1 32 -2 36 -5 3 -4 -2 -7 -13 -8 -10 0 -29 -2 -42 -3 -20 -2 -23 1
-17 22 4 16 1 28 -7 33 -10 7 -9 9 5 9 10 0 24 15 34 35 27 56 26 33 -1 -28z
m-45 16 c-12 -20 -14 -14 -5 12 4 9 9 14 11 11 3 -2 0 -13 -6 -23z m83 -43
c-10 -4 -23 -5 -28 -2 -13 7 16 21 32 14 13 -4 12 -7 -4 -12z m-384 -10 c0 -5
-6 -10 -14 -10 -7 0 -19 -6 -25 -14 -21 -25 9 -30 35 -5 13 12 24 17 24 11 0
-6 -4 -14 -10 -17 -15 -9 -12 -25 5 -25 8 0 15 -5 15 -11 0 -7 -11 -9 -30 -6
-31 7 -52 -9 -26 -19 27 -10 18 -25 -10 -18 -18 5 -25 3 -21 -3 4 -6 -3 -13
-15 -16 -12 -4 -25 -2 -28 2 -3 5 -16 11 -30 13 -15 2 -24 9 -22 17 2 8 -3 11
-13 8 -22 -9 -18 4 11 37 16 18 35 28 52 28 15 0 33 5 40 11 11 9 11 12 -5 18
-12 5 -4 8 25 8 23 1 42 -3 42 -9z m-240 -55 c-7 -9 -15 -13 -17 -11 -7 7 7
26 19 26 6 0 6 -6 -2 -15z m60 12 c0 -2 -10 -12 -22 -23 l-23 -19 19 23 c18
21 26 27 26 19z"/>
<path d="M3319 3211 c-17 -14 -23 -28 -22 -56 2 -77 69 -121 127 -85 26 16 31
24 30 57 -1 51 -11 71 -45 88 -38 20 -62 19 -90 -4z m58 -27 c-3 -3 -12 -4
-19 -1 -8 3 -5 6 6 6 11 1 17 -2 13 -5z"/>
<path d="M3581 3184 c-25 -31 -26 -44 -8 -69 14 -18 43 -13 32 6 -14 22 14 7
29 -16 19 -29 34 -32 43 -9 6 16 -34 52 -51 46 -5 -2 -2 8 8 22 22 35 20 46
-8 46 -15 0 -33 -11 -45 -26z"/>
<path d="M3680 3033 c-19 -3 -43 -12 -52 -20 -27 -24 -23 -79 7 -109 21 -21
33 -25 73 -22 43 3 48 6 58 36 5 18 13 29 17 26 4 -4 7 4 7 17 0 19 -2 21 -11
9 -8 -12 -10 -12 -8 5 2 34 0 43 -18 49 -14 6 -14 3 3 -15 l19 -23 -26 20
c-15 10 -25 22 -22 27 2 4 1 6 -4 5 -4 0 -24 -3 -43 -5z"/>
<path d="M4455 2970 c-3 -5 -1 -10 4 -10 6 0 11 5 11 10 0 6 -2 10 -4 10 -3 0
-8 -4 -11 -10z"/>
<path d="M3417 2896 c-4 -10 -1 -13 9 -9 7 3 14 9 14 14 0 14 -17 10 -23 -5z"/>
<path d="M3193 2855 c-62 -43 -14 -155 66 -155 18 0 36 18 59 57 15 28 16 44
1 23 -8 -12 -9 -9 -5 11 12 56 -71 99 -121 64z"/>
<path d="M3437 2800 c-76 -60 -19 -195 74 -175 39 9 61 38 66 88 4 36 1 48
-18 69 -33 37 -88 44 -122 18z"/>
<path d="M4140 2720 c-16 -31 -1 -44 20 -18 18 22 18 38 0 38 -5 0 -14 -9 -20
-20z"/>
<path d="M4082 2708 c-39 -39 14 -84 72 -62 21 8 21 24 0 24 -20 0 -42 22 -36
38 5 15 -20 16 -36 0z"/>
<path d="M4273 2686 c-4 -5 0 -6 8 -1 8 5 -1 -5 -18 -22 -37 -35 -42 -70 -17
-108 18 -27 74 -49 102 -41 60 19 83 99 45 151 -17 24 -28 29 -68 30 -25 0
-49 -4 -52 -9z"/>
<path d="M3765 2661 c-8 -25 -21 -27 -29 -5 -5 13 -9 14 -21 4 -23 -19 -18
-48 11 -75 30 -28 75 -33 94 -10 16 19 5 47 -17 43 -12 -2 -17 2 -14 12 7 30
6 43 -6 47 -6 2 -14 -5 -18 -16z"/>
<path d="M3975 2521 c-50 -8 -64 -17 -75 -47 -13 -34 6 -70 45 -89 39 -18 47
-18 79 -3 25 11 43 42 37 63 -1 6 -4 19 -5 30 -3 32 -15 45 -33 38 -11 -4 -14
-3 -9 5 4 7 6 11 4 11 -2 -1 -21 -4 -43 -8z"/>
<path d="M3301 2486 c-7 -8 -11 -23 -9 -32 4 -22 28 -31 28 -11 0 17 27 30 42
21 6 -4 8 2 6 12 -4 24 -50 31 -67 10z"/>
<path d="M3337 2454 c-8 -8 26 -64 40 -64 19 0 26 20 12 36 -16 19 -45 35 -52
28z"/>
<path d="M3541 2420 c-80 -13 -106 -82 -53 -139 38 -42 70 -47 112 -19 29 19
36 32 41 68 4 27 2 49 -4 55 -7 7 -7 5 -2 -4 6 -10 4 -12 -4 -7 -6 4 -10 15
-9 24 2 12 -3 16 -16 14 -11 -2 -15 1 -11 7 3 6 3 10 -2 10 -4 -1 -28 -5 -52
-9z"/>
<path d="M3640 2180 c-13 -8 -13 -10 2 -10 9 0 20 5 23 10 8 13 -5 13 -25 0z"/>
<path d="M3685 2171 c-3 -5 -1 -12 5 -16 12 -7 30 2 30 16 0 12 -27 12 -35 0z"/>
<path d="M3725 3389 c-30 -17 -45 -40 -45 -71 0 -66 136 -89 156 -26 11 36 12
68 1 61 -6 -4 -8 0 -4 10 3 9 1 20 -6 24 -20 12 -81 13 -102 2z"/>
<path d="M3977 3384 c-26 -8 -50 -20 -52 -27 -2 -7 -6 -24 -9 -39 -8 -37 9
-37 99 1 58 25 71 34 73 55 3 23 0 26 -30 25 -18 0 -55 -7 -81 -15z"/>
<path d="M4240 3311 c-5 -11 -10 -30 -10 -43 0 -25 34 -88 48 -88 5 0 23 16
41 35 17 19 36 35 42 35 16 0 0 42 -23 63 -28 24 -84 23 -98 -2z"/>
<path d="M3981 3230 c-34 -22 -64 -47 -67 -55 -9 -23 15 -72 37 -78 28 -7 23
-33 -11 -59 -16 -12 -30 -28 -30 -37 0 -8 -9 -24 -19 -35 -18 -19 -49 -152
-38 -162 8 -8 314 146 334 168 21 22 57 98 50 104 -2 2 -19 -8 -38 -21 -55
-41 -73 -32 -81 45 -4 36 -12 74 -17 85 -5 11 -15 35 -23 53 -7 17 -18 32 -24
32 -6 0 -39 -18 -73 -40z"/>
<path d="M3903 2249 c-25 -7 -35 -17 -41 -42 -11 -39 3 -84 30 -98 29 -16 86
-2 93 21 4 11 11 20 16 20 5 0 9 12 9 26 0 17 -4 23 -12 18 -7 -5 -9 -2 -5 8
3 9 -4 25 -17 37 -25 23 -27 23 -73 10z m73 -21 l19 -23 -25 20 c-14 11 -27
21 -29 22 -2 2 0 3 6 3 5 0 18 -10 29 -22z"/>
<path d="M6511 1247 c-16 -40 -14 -47 12 -47 43 0 51 15 24 46 l-25 29 -11
-28z"/>
<path d="M3916 1042 c-3 -5 -3 -25 1 -45 6 -40 35 -52 47 -21 15 38 -29 97
-48 66z"/>
<path d="M3110 916 c-15 -40 20 -131 62 -160 30 -21 35 -20 53 7 13 21 13 29
0 74 -26 88 -94 134 -115 79z"/>
<path d="M2205 739 c-9 -38 -5 -42 35 -32 l32 8 -22 28 c-28 35 -37 34 -45 -4z"/>
<path d="M987 703 c-10 -10 -8 -76 3 -93 14 -23 44 0 48 37 4 40 -30 77 -51
56z"/>
</g>
</svg>
